<mxfile host="65bd71144e">
    <diagram id="By98sHx57U2zeXdGKpVk" name="Page-1">
        <mxGraphModel dx="1094" dy="663" grid="1" gridSize="10" guides="1" tooltips="1" connect="1" arrows="1" fold="1" page="1" pageScale="1" pageWidth="1169" pageHeight="827" math="0" shadow="0">
            <root>
                <mxCell id="0"/>
                <mxCell id="1" parent="0"/>
                <mxCell id="xCUrHhUUNWh9P9F-VnJE-2" style="edgeStyle=orthogonalEdgeStyle;rounded=0;orthogonalLoop=1;jettySize=auto;html=1;" parent="1" source="zomS5F7ylYyf5ziz8VyH-1" target="zomS5F7ylYyf5ziz8VyH-14" edge="1">
                    <mxGeometry relative="1" as="geometry"/>
                </mxCell>
                <mxCell id="zomS5F7ylYyf5ziz8VyH-1" value="Collector" style="rounded=0;whiteSpace=wrap;html=1;" parent="1" vertex="1">
                    <mxGeometry x="80" y="360" width="80" height="80" as="geometry"/>
                </mxCell>
                <mxCell id="zomS5F7ylYyf5ziz8VyH-2" value="&lt;h1&gt;FJ-Collector&lt;/h1&gt;&lt;p&gt;Container that runs the collection of data.&lt;/p&gt;&lt;p&gt;Receives as input a YAML file&lt;/p&gt;&lt;p&gt;&lt;span style=&quot;font-size: 24px; background-color: initial;&quot;&gt;Features&lt;/span&gt;&lt;br&gt;&lt;/p&gt;&lt;p&gt;CS8000 will be the first focus&lt;/p&gt;&lt;p&gt;&lt;font style=&quot;font-size: 24px;&quot;&gt;Roadmap&lt;/font&gt;&lt;/p&gt;" style="text;html=1;strokeColor=none;fillColor=none;spacing=5;spacingTop=-20;whiteSpace=wrap;overflow=hidden;rounded=0;" parent="1" vertex="1">
                    <mxGeometry x="80" y="17.5" width="190" height="300" as="geometry"/>
                </mxCell>
                <mxCell id="zomS5F7ylYyf5ziz8VyH-14" value="Graphite Web" style="rounded=0;whiteSpace=wrap;html=1;" parent="1" vertex="1">
                    <mxGeometry x="360" y="359" width="80" height="80" as="geometry"/>
                </mxCell>
                <mxCell id="zomS5F7ylYyf5ziz8VyH-18" value="&lt;h1&gt;&lt;span style=&quot;font-weight: normal;&quot;&gt;Graphite&lt;/span&gt;&lt;/h1&gt;&lt;p&gt;Repository for data&lt;/p&gt;" style="text;html=1;strokeColor=none;fillColor=none;spacing=5;spacingTop=-20;whiteSpace=wrap;overflow=hidden;rounded=0;" parent="1" vertex="1">
                    <mxGeometry x="325" y="490" width="190" height="71" as="geometry"/>
                </mxCell>
                <mxCell id="zomS5F7ylYyf5ziz8VyH-19" value="Graphite Web" style="rounded=0;whiteSpace=wrap;html=1;" parent="1" vertex="1">
                    <mxGeometry x="370" y="369" width="80" height="80" as="geometry"/>
                </mxCell>
                <mxCell id="zomS5F7ylYyf5ziz8VyH-20" value="Graphite Web" style="rounded=0;whiteSpace=wrap;html=1;" parent="1" vertex="1">
                    <mxGeometry x="380" y="379" width="80" height="80" as="geometry"/>
                </mxCell>
                <mxCell id="zomS5F7ylYyf5ziz8VyH-21" value="Graphite Web" style="rounded=0;whiteSpace=wrap;html=1;" parent="1" vertex="1">
                    <mxGeometry x="390" y="389" width="80" height="80" as="geometry"/>
                </mxCell>
                <mxCell id="zomS5F7ylYyf5ziz8VyH-22" value="&lt;pre style=&quot;box-sizing: inherit; font-size: 11.9px; overflow-wrap: normal; padding: 16px; overflow: auto; line-height: 1.45; background-color: rgb(249, 249, 250); border: 1px solid rgb(225, 226, 230); border-radius: 3px; color: rgb(57, 63, 73); text-align: start;&quot;&gt;&lt;code style=&quot;box-sizing: inherit; font-family: &amp;quot;Roboto Mono&amp;quot;, consolas, monaco, monospace; font-size: 11.9px; overflow-wrap: break-word; padding: 0px; background: transparent; border-radius: 1px; margin: 0px; line-height: 1.75; word-break: normal; border: 0px;&quot;&gt;Docker composer will be used to run the 3 containers&lt;/code&gt;&lt;/pre&gt;" style="text;html=1;align=center;verticalAlign=middle;resizable=0;points=[];autosize=1;strokeColor=none;fillColor=none;fontSize=12;" parent="1" vertex="1">
                    <mxGeometry x="195" y="590" width="430" height="90" as="geometry"/>
                </mxCell>
                <mxCell id="xCUrHhUUNWh9P9F-VnJE-6" style="edgeStyle=orthogonalEdgeStyle;rounded=0;orthogonalLoop=1;jettySize=auto;html=1;entryX=0.5;entryY=0;entryDx=0;entryDy=0;" parent="1" source="xCUrHhUUNWh9P9F-VnJE-5" target="vVXevMQ1yN0tcgJenftW-1" edge="1">
                    <mxGeometry relative="1" as="geometry"/>
                </mxCell>
                <mxCell id="xCUrHhUUNWh9P9F-VnJE-7" value="Access Data" style="edgeLabel;html=1;align=center;verticalAlign=middle;resizable=0;points=[];" parent="xCUrHhUUNWh9P9F-VnJE-6" vertex="1" connectable="0">
                    <mxGeometry x="-0.3163" y="1" relative="1" as="geometry">
                        <mxPoint as="offset"/>
                    </mxGeometry>
                </mxCell>
                <mxCell id="xCUrHhUUNWh9P9F-VnJE-5" value="User" style="outlineConnect=0;dashed=0;verticalLabelPosition=bottom;verticalAlign=top;align=center;html=1;shape=mxgraph.aws3.user;fillColor=#D2D3D3;gradientColor=none;" parent="1" vertex="1">
                    <mxGeometry x="627.5" y="136" width="45" height="63" as="geometry"/>
                </mxCell>
                <mxCell id="vVXevMQ1yN0tcgJenftW-2" style="edgeStyle=orthogonalEdgeStyle;rounded=0;orthogonalLoop=1;jettySize=auto;html=1;entryX=1;entryY=0.5;entryDx=0;entryDy=0;" parent="1" source="vVXevMQ1yN0tcgJenftW-1" target="zomS5F7ylYyf5ziz8VyH-21" edge="1">
                    <mxGeometry relative="1" as="geometry"/>
                </mxCell>
                <mxCell id="vVXevMQ1yN0tcgJenftW-1" value="Grafana" style="rounded=0;whiteSpace=wrap;html=1;" parent="1" vertex="1">
                    <mxGeometry x="610" y="389" width="80" height="80" as="geometry"/>
                </mxCell>
                <mxCell id="2" value="&lt;h1&gt;&lt;span style=&quot;font-weight: normal;&quot;&gt;FJ-Collector&lt;/span&gt;&lt;/h1&gt;&lt;p&gt;Python program that collects data&lt;/p&gt;&lt;p&gt;Datasources will be added&lt;/p&gt;" style="text;html=1;strokeColor=none;fillColor=none;spacing=5;spacingTop=-20;whiteSpace=wrap;overflow=hidden;rounded=0;" vertex="1" parent="1">
                    <mxGeometry x="40" y="490" width="190" height="71" as="geometry"/>
                </mxCell>
                <mxCell id="3" value="&lt;h1&gt;&lt;span style=&quot;font-weight: normal;&quot;&gt;Grafana&lt;/span&gt;&lt;/h1&gt;&lt;p&gt;Dashboard for the Data&lt;/p&gt;" style="text;html=1;strokeColor=none;fillColor=none;spacing=5;spacingTop=-20;whiteSpace=wrap;overflow=hidden;rounded=0;" vertex="1" parent="1">
                    <mxGeometry x="570" y="490" width="190" height="71" as="geometry"/>
                </mxCell>
            </root>
        </mxGraphModel>
    </diagram>
</mxfile>